<svg width="36" height="36" viewBox="0 0 36 36" fill="none" xmlns="http://www.w3.org/2000/svg">
<path d="M27.6387 20.9911C28.0411 20.9911 28.4434 21.0358 28.8357 21.1235C29.513 21.2741 29.9388 21.9409 29.7846 22.6078C29.6287 23.2747 28.9547 23.6966 28.2791 23.5428C26.5356 23.1489 24.7921 24.5207 24.7921 26.283C24.7921 27.8319 26.0679 29.0928 27.6387 29.0928C29.2079 29.0928 30.4853 27.8319 30.4853 26.283C30.4853 26.1242 30.4719 25.967 30.4468 25.8164C30.3311 25.1396 30.7955 24.5009 31.4795 24.3867C32.1618 24.2742 32.8122 24.7309 32.9262 25.4077C32.9749 25.6923 33 25.9852 33 26.283C33 29.2004 30.5943 31.575 27.6387 31.575C24.6815 31.575 22.2775 29.2004 22.2775 26.283C22.2775 23.364 24.6815 20.9911 27.6387 20.9911ZM16.0674 25.0416C16.7615 25.0416 17.3248 25.5976 17.3248 26.2827C17.3248 26.9678 16.7615 27.5238 16.0674 27.5238H5.75733C5.06328 27.5238 4.5 26.9678 4.5 26.2827C4.5 25.5976 5.06328 25.0416 5.75733 25.0416H16.0674ZM9.86176 4.5C12.819 4.5 15.223 6.87294 15.223 9.79195C15.223 12.7093 12.819 15.0839 9.86176 15.0839C6.90452 15.0839 4.5005 12.7093 4.5005 9.79195C4.5005 9.49409 4.52565 9.2012 4.57427 8.91658C4.68826 8.23978 5.32866 7.78803 6.02103 7.89559C6.70502 8.00977 7.1694 8.64851 7.05372 9.32531C7.02858 9.47589 7.01516 9.63309 7.01516 9.79195C7.01516 11.3408 8.29094 12.6017 9.86176 12.6017C11.4326 12.6017 12.7084 11.3408 12.7084 9.79195C12.7084 8.24143 11.4326 6.98215 9.86176 6.98215C9.64718 6.98215 9.43259 7.00532 9.22807 7.05165C8.54911 7.21217 7.87518 6.79186 7.71759 6.12498C7.56001 5.45811 7.98079 4.78958 8.65808 4.63569C9.05036 4.54468 9.45439 4.5 9.86176 4.5ZM31.7423 8.55038C32.4364 8.55038 32.9997 9.10638 32.9997 9.79145C32.9997 10.4765 32.4364 11.0325 31.7423 11.0325H21.4339C20.7399 11.0325 20.1766 10.4765 20.1766 9.79145C20.1766 9.10638 20.7399 8.55038 21.4339 8.55038H31.7423Z" fill="#446DF6"/>
</svg>
