<svg width="36" height="36" viewBox="0 0 36 36" fill="none" xmlns="http://www.w3.org/2000/svg">
<path d="M18.05 3C25.0795 3.02762 30.7775 8.76296 30.7499 15.7835V15.9229C30.655 20.94 27.6387 25.1034 25.1256 27.7119C24.4104 28.4578 23.6491 29.1734 22.8641 29.8416C22.3939 30.2428 21.6879 30.1876 21.2862 29.718C20.8844 29.247 20.9411 28.542 21.4113 28.1408C22.1383 27.5212 22.8457 26.8556 23.5108 26.1623C25.7473 23.8419 28.429 20.1731 28.5107 15.8821C28.5331 9.98763 23.8375 5.25862 18.0407 5.23494H17.9999C12.2229 5.23494 7.51153 9.91792 7.48914 15.6914C7.58792 18.5433 8.55207 21.2544 10.2788 23.5288C12.2941 26.2123 15.3511 29.0537 18.2567 30.9453C18.7757 31.282 18.9219 31.974 18.5834 32.4922C18.37 32.8211 18.0104 33 17.6443 33C17.4348 33 17.2241 32.9421 17.0344 32.8185C13.9234 30.794 10.649 27.7501 8.49016 24.8758C6.48679 22.2357 5.36591 19.0852 5.25 15.769C5.27766 8.67877 10.9927 3 17.9999 3H18.05ZM17.9959 11.0751C20.6711 11.0751 22.8483 13.2482 22.8483 15.9212C22.8483 18.5929 20.6711 20.766 17.9959 20.766C15.3208 20.766 13.1436 18.5929 13.1436 15.9212C13.1436 15.3029 13.6454 14.8031 14.2632 14.8031C14.8809 14.8031 15.3827 15.3029 15.3827 15.9212C15.3827 17.359 16.555 18.531 17.9959 18.531C19.4369 18.531 20.6092 17.359 20.6092 15.9212C20.6092 14.4821 19.4369 13.3101 17.9959 13.3101C17.3782 13.3101 16.8764 12.8102 16.8764 12.1932C16.8764 11.575 17.3782 11.0751 17.9959 11.0751Z" fill="#446DF6"/>
</svg>
